<svg width="29" height="29" viewBox="0 0 29 29" fill="none" xmlns="http://www.w3.org/2000/svg">
<path fill-rule="evenodd" clip-rule="evenodd" d="M14.4999 0C6.49287 0 0 6.49143 0 14.4999C0 20.9065 4.15466 26.3415 9.9159 28.259C10.6403 28.3935 10.9064 27.9445 10.9064 27.5615C10.9064 27.2157 10.8929 26.0735 10.8867 24.8619C6.8528 25.739 6.0016 23.1511 6.0016 23.1511C5.34201 21.4751 4.39165 21.0295 4.39165 21.0295C3.07583 20.1295 4.49081 20.1483 4.49081 20.1483C5.94661 20.2503 6.71353 21.6425 6.71353 21.6425C8.00677 23.8587 10.1056 23.2181 10.933 22.8479C11.0632 21.9107 11.4389 21.2708 11.8536 20.9087C8.63299 20.5425 5.24717 19.299 5.24717 13.743C5.24717 12.16 5.81383 10.8665 6.74138 9.85083C6.59059 9.48586 6.09428 8.0111 6.88161 6.01384C6.88161 6.01384 8.09898 5.62414 10.8699 7.50014C12.0267 7.17863 13.2674 7.01703 14.4999 7.01151C15.7317 7.01703 16.973 7.17815 18.1321 7.49966C20.8996 5.62366 22.1155 6.01336 22.1155 6.01336C22.9048 8.01037 22.4084 9.48538 22.2579 9.85035C23.1876 10.866 23.7502 12.1595 23.7502 13.7426C23.7502 19.3117 20.3581 20.5377 17.1293 20.8969C17.6497 21.3469 18.1131 22.2296 18.1131 23.5821C18.1131 25.5222 18.0963 27.0837 18.0963 27.5613C18.0963 27.9471 18.3575 28.3992 19.0923 28.2569C24.8501 26.3374 29 20.9041 29 14.4999C28.9998 6.49191 22.5076 0 14.4999 0Z" fill="#F9F5F0"/>
<path d="M5.49186 20.8184C5.45992 20.8905 5.34659 20.9121 5.24334 20.8629C5.13769 20.8158 5.07886 20.7176 5.11296 20.6453C5.14418 20.5709 5.25775 20.5505 5.36268 20.6002C5.46833 20.6475 5.52835 20.7467 5.49162 20.8187L5.49186 20.8184ZM6.07917 21.4737C6.01026 21.5378 5.87508 21.5081 5.78335 21.4065C5.68827 21.3056 5.6705 21.1705 5.74085 21.1054C5.81241 21.0415 5.94351 21.0718 6.03859 21.1726C6.1332 21.2749 6.15192 21.4089 6.07941 21.474L6.07917 21.4737ZM6.65112 22.3086C6.56228 22.3705 6.41677 22.3127 6.32697 22.1837C6.23813 22.0545 6.23813 21.8997 6.32937 21.838C6.41893 21.776 6.56228 21.832 6.65352 21.9597C6.74188 22.0906 6.74188 22.2457 6.65112 22.3086ZM7.43412 23.1156C7.35489 23.2032 7.18537 23.1797 7.06147 23.0604C6.93493 22.9434 6.89963 22.777 6.97911 22.6896C7.05979 22.6018 7.23003 22.6263 7.35465 22.7449C7.48118 22.8616 7.51936 23.0282 7.4346 23.1154L7.43412 23.1156ZM8.51463 23.5841C8.47933 23.6976 8.31653 23.7493 8.15206 23.7008C7.98806 23.651 7.88073 23.5183 7.91435 23.4035C7.94796 23.289 8.11196 23.2354 8.2774 23.287C8.44139 23.3365 8.54872 23.4686 8.51463 23.5841ZM9.7015 23.6707C9.70558 23.7903 9.56632 23.8892 9.39416 23.8916C9.22056 23.8957 9.08009 23.7987 9.07841 23.6811C9.07841 23.5603 9.21479 23.4626 9.38815 23.4592C9.56031 23.4561 9.70174 23.5521 9.70174 23.6705L9.7015 23.6707ZM10.8055 23.483C10.8262 23.5994 10.7064 23.7192 10.5352 23.7512C10.3671 23.7824 10.211 23.7099 10.1894 23.5944C10.1688 23.4748 10.2907 23.355 10.4588 23.324C10.6303 23.2945 10.7839 23.3646 10.8055 23.483Z" fill="#F9F5F0"/>
</svg>
