<svg width="30" height="29" viewBox="0 0 30 29" fill="none" xmlns="http://www.w3.org/2000/svg">
<path d="M23.9688 0H6.03125C2.7 0 0 2.64863 0 5.91649V23.0835C0 26.3514 2.7 29 6.03125 29H23.9688C27.3 29 30 26.3514 30 23.0835V5.91649C30 2.64863 27.3 0 23.9688 0ZM15 21.4281C11.1 21.4281 7.9375 18.3258 7.9375 14.5C7.9375 10.6742 11.1 7.57188 15 7.57188C18.9 7.57188 22.0625 10.6742 22.0625 14.5C22.0625 18.3258 18.9 21.4281 15 21.4281ZM24.1063 7.39408C23.275 7.39408 22.6 6.73192 22.6 5.91649C22.6 5.10106 23.275 4.4389 24.1063 4.4389C24.9375 4.4389 25.6125 5.10106 25.6125 5.91649C25.6125 6.73192 24.9375 7.39408 24.1063 7.39408Z" fill="#F9F5F0"/>
</svg>
