<svg width="24" height="23" viewBox="0 0 24 23" fill="none" xmlns="http://www.w3.org/2000/svg">
<path d="M24 22.9992V14.1018C24 9.3343 21.462 7.11597 18.078 7.11597C15.3472 7.11597 14.1233 8.62218 13.4415 9.67946V7.48068H8.2965C8.36475 8.93726 8.2965 22.9992 8.2965 22.9992H13.4415V14.3327C13.4415 13.8702 13.4745 13.4063 13.611 13.0754C13.9823 12.1482 14.829 11.1887 16.2495 11.1887C18.1117 11.1887 18.8558 12.6114 18.8558 14.6974V23L24 22.9992ZM2.87625 5.36236C4.6695 5.36236 5.78775 4.16972 5.78775 2.68005C5.75475 1.15805 4.67025 0 2.91075 0C1.15125 0 0 1.15729 0 2.68005C0 4.16972 1.11675 5.36236 2.844 5.36236H2.87625ZM5.44875 22.9992V7.48068H0.3045V22.9992H5.44875Z" fill="#F9F5F0"/>
</svg>
